<svg xmlns="http://www.w3.org/2000/svg" xmlns:xlink="http://www.w3.org/1999/xlink" viewBox="0 0 1066.67 600"><defs><linearGradient id="linear-gradient" x1="531.83" y1="-374.85" x2="531.83" y2="576.96" gradientUnits="userSpaceOnUse"><stop offset="0" stop-color="#000205"/><stop offset="0.12" stop-color="#03070d"/><stop offset="0.29" stop-color="#0c1322"/><stop offset="0.51" stop-color="#1a2844"/><stop offset="0.67" stop-color="#263a61"/></linearGradient><linearGradient id="linear-gradient-2" x1="-29.67" y1="328.48" x2="480.33" y2="328.48" gradientUnits="userSpaceOnUse"><stop offset="0.24" stop-color="#01080d"/><stop offset="0.98" stop-color="#030812"/></linearGradient><linearGradient id="linear-gradient-3" x1="376.52" y1="289" x2="933.33" y2="289" xlink:href="#linear-gradient-2"/><linearGradient id="linear-gradient-4" x1="33.32" y1="158.1" x2="706.8" y2="-52.32" gradientUnits="userSpaceOnUse"><stop offset="0.24" stop-color="#0b1924"/><stop offset="0.97" stop-color="#061012"/></linearGradient><linearGradient id="linear-gradient-5" x1="487.51" y1="146.71" x2="1023.23" y2="-20.67" xlink:href="#linear-gradient-4"/><linearGradient id="linear-gradient-6" x1="-618.77" y1="608.27" x2="1289.93" y2="416.22" gradientUnits="userSpaceOnUse"><stop offset="0" stop-color="#5e8bc4"/><stop offset="0.05" stop-color="#5a85bc"/><stop offset="0.14" stop-color="#4f75a7"/><stop offset="0.24" stop-color="#3d5985"/><stop offset="0.35" stop-color="#243456"/><stop offset="0.45" stop-color="#0a0d24"/><stop offset="0.93" stop-color="#01041c"/></linearGradient><linearGradient id="linear-gradient-7" x1="-146.24" y1="366.57" x2="1535.02" y2="413.65" gradientUnits="userSpaceOnUse"><stop offset="0" stop-color="#5e8bc4"/><stop offset="0.05" stop-color="#5a85bc"/><stop offset="0.14" stop-color="#4f75a7"/><stop offset="0.24" stop-color="#3d5985"/><stop offset="0.35" stop-color="#243456"/><stop offset="0.45" stop-color="#0a0d24"/><stop offset="0.79" stop-color="#051c3a"/><stop offset="0.93" stop-color="#022345"/></linearGradient><linearGradient id="linear-gradient-8" x1="-415.18" y1="466.81" x2="1824.21" y2="529.52" xlink:href="#linear-gradient-7"/><linearGradient id="linear-gradient-9" x1="251.21" y1="533.53" x2="860.11" y2="550.58" xlink:href="#linear-gradient-7"/><linearGradient id="linear-gradient-10" x1="36.09" y1="444.97" x2="1245.78" y2="444.97" xlink:href="#linear-gradient-7"/><linearGradient id="linear-gradient-11" x1="31.71" y1="451.9" x2="1629.41" y2="451.9" xlink:href="#linear-gradient-7"/><linearGradient id="linear-gradient-12" x1="-532.25" y1="569.5" x2="2797.25" y2="569.5" xlink:href="#linear-gradient-7"/><linearGradient id="linear-gradient-13" x1="22.82" y1="540.6" x2="701.84" y2="540.6" xlink:href="#linear-gradient-7"/><linearGradient id="linear-gradient-14" x1="-141.47" y1="509.09" x2="3002.58" y2="509.09" xlink:href="#linear-gradient-7"/><linearGradient id="linear-gradient-15" x1="-183.81" y1="385.5" x2="932.19" y2="385.5" xlink:href="#linear-gradient-7"/><linearGradient id="linear-gradient-16" x1="418.94" y1="506.92" x2="732" y2="515.69" xlink:href="#linear-gradient-7"/><linearGradient id="linear-gradient-17" x1="284.13" y1="514.77" x2="614.44" y2="524.02" xlink:href="#linear-gradient-7"/><linearGradient id="linear-gradient-18" x1="394.48" y1="482.34" x2="710.42" y2="491.19" xlink:href="#linear-gradient-7"/><linearGradient id="linear-gradient-19" x1="104.41" y1="488.46" x2="526.97" y2="500.29" xlink:href="#linear-gradient-7"/><linearGradient id="linear-gradient-20" x1="-41.88" y1="580.87" x2="1170.9" y2="580.87" xlink:href="#linear-gradient-7"/><linearGradient id="linear-gradient-21" x1="294.33" y1="552.51" x2="294.33" y2="184.9" gradientUnits="userSpaceOnUse"><stop offset="0.08" stop-color="#030921"/><stop offset="0.67" stop-color="#1c2336"/></linearGradient><linearGradient id="linear-gradient-22" x1="-224.69" y1="-301.13" x2="543.76" y2="699.48" gradientUnits="userSpaceOnUse"><stop offset="0" stop-color="#020a21"/><stop offset="0.23" stop-color="#020819"/><stop offset="0.58" stop-color="#000105"/><stop offset="0.64"/></linearGradient><linearGradient id="linear-gradient-23" x1="-91.19" y1="-138.87" x2="492.55" y2="621.22" xlink:href="#linear-gradient-22"/><linearGradient id="linear-gradient-24" x1="29.07" y1="152.7" x2="283.62" y2="484.15" gradientUnits="userSpaceOnUse"><stop offset="0.01" stop-color="#c1c6d9"/><stop offset="0.08" stop-color="#c3c8da" stop-opacity="0.96"/><stop offset="0.2" stop-color="#c7cdde" stop-opacity="0.85"/><stop offset="0.35" stop-color="#cfd5e5" stop-opacity="0.67"/><stop offset="0.52" stop-color="#dae1ed" stop-opacity="0.42"/><stop offset="0.72" stop-color="#e7eff8" stop-opacity="0.11"/><stop offset="0.78" stop-color="#ecf4fc" stop-opacity="0"/></linearGradient><linearGradient id="linear-gradient-25" x1="132.93" y1="161.15" x2="323.41" y2="409.18" xlink:href="#linear-gradient-24"/><linearGradient id="linear-gradient-26" x1="674.83" y1="602.8" x2="674.83" y2="-356.7" xlink:href="#linear-gradient-21"/><linearGradient id="linear-gradient-27" x1="-852.3" y1="-1624.52" x2="1490.25" y2="1425.74" gradientUnits="userSpaceOnUse"><stop offset="0.06" stop-color="#02060f"/><stop offset="0.75" stop-color="#04061c"/></linearGradient><linearGradient id="linear-gradient-28" x1="-566.26" y1="-1277.55" x2="1365.51" y2="1237.84" xlink:href="#linear-gradient-27"/><linearGradient id="linear-gradient-29" x1="222.92" y1="128.19" x2="472.35" y2="452.97" xlink:href="#linear-gradient-24"/><linearGradient id="linear-gradient-30" x1="343.33" y1="-38.26" x2="682.91" y2="403.92" xlink:href="#linear-gradient-24"/><linearGradient id="linear-gradient-31" x1="386.22" y1="202.03" x2="513.17" y2="367.34" xlink:href="#linear-gradient-24"/><linearGradient id="linear-gradient-32" x1="-3.73" y1="-203.28" x2="662.56" y2="664.32" xlink:href="#linear-gradient-27"/><linearGradient id="linear-gradient-33" x1="-99.57" y1="-566.45" x2="1002.87" y2="869.05" xlink:href="#linear-gradient-27"/><linearGradient id="linear-gradient-34" x1="-54.86" y1="-164.52" x2="1100.58" y2="488.3" gradientUnits="userSpaceOnUse"><stop offset="0" stop-color="#94bbe0"/><stop offset="0.07" stop-color="#8fb4d8"/><stop offset="0.17" stop-color="#80a1c3"/><stop offset="0.29" stop-color="#6883a1"/><stop offset="0.42" stop-color="#465871"/><stop offset="0.58" stop-color="#1b2235"/><stop offset="0.65" stop-color="#040414"/></linearGradient><linearGradient id="linear-gradient-35" x1="-339.81" y1="-1168.33" x2="1161.66" y2="786.75" gradientUnits="userSpaceOnUse"><stop offset="0" stop-color="#4b6c7d"/><stop offset="0.15" stop-color="#436776"/><stop offset="0.38" stop-color="#2e5764"/><stop offset="0.65" stop-color="#0e4047"/></linearGradient><linearGradient id="linear-gradient-36" x1="272.83" y1="-43.59" x2="682.17" y2="489.42" xlink:href="#linear-gradient-22"/><linearGradient id="linear-gradient-37" x1="-572.66" y1="-1450.42" x2="1198.87" y2="856.32" xlink:href="#linear-gradient-22"/><linearGradient id="linear-gradient-38" x1="456.78" y1="105.58" x2="767.36" y2="413.51" gradientUnits="userSpaceOnUse"><stop offset="0" stop-color="#d7d980"/><stop offset="0.07" stop-color="#d8da85" stop-opacity="0.96"/><stop offset="0.19" stop-color="#dadd93" stop-opacity="0.85"/><stop offset="0.34" stop-color="#dee2a9" stop-opacity="0.67"/><stop offset="0.52" stop-color="#e3e9c8" stop-opacity="0.42"/><stop offset="0.71" stop-color="#eaf1ef" stop-opacity="0.11"/><stop offset="0.77" stop-color="#ecf4fc" stop-opacity="0"/></linearGradient><linearGradient id="linear-gradient-39" x1="667.81" y1="-8.52" x2="872.12" y2="257.52" gradientUnits="userSpaceOnUse"><stop offset="0" stop-color="#d7d980"/><stop offset="0.08" stop-color="#d8da85" stop-opacity="0.96"/><stop offset="0.22" stop-color="#dadd93" stop-opacity="0.85"/><stop offset="0.39" stop-color="#dee2a9" stop-opacity="0.67"/><stop offset="0.59" stop-color="#e3e9c8" stop-opacity="0.42"/><stop offset="0.81" stop-color="#eaf1ef" stop-opacity="0.11"/><stop offset="0.88" stop-color="#ecf4fc" stop-opacity="0"/></linearGradient><linearGradient id="linear-gradient-40" x1="1082.03" y1="361.16" x2="615.71" y2="113.47" xlink:href="#linear-gradient-21"/><linearGradient id="linear-gradient-41" x1="316.75" y1="-340.51" x2="1630.34" y2="961.89" xlink:href="#linear-gradient-27"/><linearGradient id="linear-gradient-42" x1="463.7" y1="-187.09" x2="1499.04" y2="839.43" xlink:href="#linear-gradient-27"/><linearGradient id="linear-gradient-43" x1="554.89" y1="168.17" x2="956.1" y2="565.96" xlink:href="#linear-gradient-27"/><linearGradient id="linear-gradient-44" x1="783.66" y1="172.22" x2="1158.98" y2="544.34" xlink:href="#linear-gradient-27"/><linearGradient id="linear-gradient-45" x1="628.82" y1="291.13" x2="789.3" y2="371.56" gradientUnits="userSpaceOnUse"><stop offset="0" stop-color="#d7d980"/><stop offset="0.77" stop-color="#ecf4fc" stop-opacity="0"/></linearGradient><linearGradient id="linear-gradient-46" x1="759.06" y1="145.67" x2="991.58" y2="376.21" gradientUnits="userSpaceOnUse"><stop offset="0" stop-color="#d7d980"/><stop offset="0.54" stop-color="#ecf4fc" stop-opacity="0"/></linearGradient><linearGradient id="linear-gradient-47" x1="936.96" y1="8.15" x2="1177.69" y2="246.83" xlink:href="#linear-gradient-46"/><linearGradient id="linear-gradient-48" x1="201.34" y1="400.25" x2="452.87" y2="400.25" gradientUnits="userSpaceOnUse"><stop offset="0.32" stop-color="#141a26"/><stop offset="0.75" stop-color="#090d14"/></linearGradient><linearGradient id="linear-gradient-49" x1="91.33" y1="414" x2="386.33" y2="414" gradientUnits="userSpaceOnUse"><stop offset="0.12" stop-color="#5b96bd"/><stop offset="0.25" stop-color="#162136"/><stop offset="1" stop-color="#020408"/></linearGradient><linearGradient id="linear-gradient-50" x1="128.56" y1="414.63" x2="673.92" y2="414.63" gradientUnits="userSpaceOnUse"><stop offset="0.15" stop-color="#020c14"/><stop offset="0.89" stop-color="#182a47"/></linearGradient><linearGradient id="linear-gradient-51" x1="15.48" y1="414.63" x2="319.84" y2="414.63" gradientUnits="userSpaceOnUse"><stop offset="0.14" stop-color="#060717"/><stop offset="0.75" stop-color="#061747"/></linearGradient><linearGradient id="linear-gradient-52" x1="496.94" y1="196.3" x2="258.05" y2="235.57" gradientUnits="userSpaceOnUse"><stop offset="0.11" stop-color="#0a142b"/><stop offset="0.39" stop-color="#010305"/><stop offset="0.99" stop-color="#030514"/></linearGradient><linearGradient id="linear-gradient-53" x1="406.44" y1="214.34" x2="219.23" y2="245.11" gradientUnits="userSpaceOnUse"><stop offset="0.13" stop-color="#000308"/><stop offset="0.39" stop-color="#030917"/><stop offset="1" stop-color="#031221"/></linearGradient><linearGradient id="linear-gradient-54" x1="249.29" y1="405.39" x2="165.75" y2="419.12" gradientUnits="userSpaceOnUse"><stop offset="0.25" stop-color="#e8f6fc"/><stop offset="1" stop-color="#ecf4fc"/></linearGradient><linearGradient id="linear-gradient-55" x1="196.88" y1="410.14" x2="158.94" y2="416.37" xlink:href="#linear-gradient-54"/><linearGradient id="linear-gradient-56" x1="244.97" y1="396.91" x2="233.18" y2="398.85" xlink:href="#linear-gradient-54"/><linearGradient id="linear-gradient-57" x1="262.97" y1="396.91" x2="251.18" y2="398.85" xlink:href="#linear-gradient-54"/><linearGradient id="linear-gradient-58" x1="279.97" y1="396.91" x2="268.18" y2="398.85" xlink:href="#linear-gradient-54"/><linearGradient id="linear-gradient-59" x1="297.97" y1="396.91" x2="286.18" y2="398.85" xlink:href="#linear-gradient-54"/><linearGradient id="linear-gradient-60" x1="313.97" y1="396.91" x2="302.18" y2="398.85" xlink:href="#linear-gradient-54"/><linearGradient id="linear-gradient-61" x1="331.97" y1="396.91" x2="320.18" y2="398.85" xlink:href="#linear-gradient-54"/><linearGradient id="linear-gradient-62" x1="348.97" y1="396.91" x2="337.18" y2="398.85" xlink:href="#linear-gradient-54"/><linearGradient id="linear-gradient-63" x1="212.33" y1="425.5" x2="382.33" y2="425.5" gradientUnits="userSpaceOnUse"><stop offset="0.27" stop-color="#05060d"/><stop offset="0.99" stop-color="#040d17"/></linearGradient><linearGradient id="linear-gradient-64" x1="307.33" y1="397.51" x2="368.33" y2="397.51" gradientUnits="userSpaceOnUse"><stop offset="0.32" stop-color="#585d66"/><stop offset="0.75" stop-color="#2d3b57"/></linearGradient></defs><title>Sea with the ship night </title><g id="sky"><g id="sky-2" data-name="sky"><rect x="-9.67" y="-7" width="1083" height="607" style="fill:url(#linear-gradient)"/></g><g id="highlight"><path d="M-59.67,90a588.5,588.5,0,0,0,137,63c151.31,47.08,284.58,20.56,351,2a726.26,726.26,0,0,1-249,59,726.29,726.29,0,0,1-263-34Z" style="fill:#051b2d;opacity:0.47000000000000003"/><path d="M303.33,128q48.84-15.81,99-34a2940.84,2940.84,0,0,0,379-169l39,36a1324.42,1324.42,0,0,1-171,82A1335,1335,0,0,1,303.33,128Z" style="fill:#051b2d;opacity:0.39"/><path d="M423.33,201c65.54-17.86,134.08-39,205-64a2939.16,2939.16,0,0,0,395-173l74,15a1716.11,1716.11,0,0,1-301,138A1716.69,1716.69,0,0,1,423.33,201Z" style="fill:#04223f;opacity:0.28"/></g><g id="clouds"><path d="M-3.67,311c1.69-21.62,15.58-38.09,30-40,18.34-2.43,42.32,18,41,49,.22-32.14,11.15-55.82,22-57,11.28-1.22,28.3,21.21,34,57,.38-.79,6.22-12.64,18-14,11.15-1.29,23,7.35,26,21,.81-4.05,6.88-32.37,31-44,26.16-12.61,63.61-.83,84,32,5.42-30.44,17.37-40.82,25-45,34.88-19.1,104.78,22.81,173,109l-510,15Q-16.66,352.5-3.67,311Z" style="opacity:0.45;fill:url(#linear-gradient-2)"/><path d="M389.33,389c-17.3-18.18-16.2-41.07-2-52.3,11.91-9.4,29.51-7.83,33-7.47-8.8-12.12-2-26.79,10-30.71,10.53-3.43,25.12,1.35,31,12.45-22.22-34.86-24.72-65.25-13-71.39s43,8.64,71,39c-6.69-12.19,0-23.82,8-25.73,6.77-1.63,17.06,3.11,22,12.45,4.52-12.47,10.77-14.48,13-14.94,11.5-2.42,28.82,12.33,42,38.18-2.4-6.28-31.41-83.38-12-91.31,16.54-6.75,59.85,40.05,68,49,2.83-7.18,10.27-12.38,19-13.29,9.93-1,19.79,3.69,24,11.63,1.51-12.92,14.53-22.17,28-21.59,10.74.47,20.53,7.11,24,16.6q5.46-44.29,26-49.8,43-11.5,152,146.92Z" style="opacity:0.45;fill:url(#linear-gradient-3)"/></g><g id="moon"><circle cx="91.83" cy="111.5" r="34.5" style="fill:#efeee6"/><circle cx="89.33" cy="96" r="8" style="fill:#dddbd0"/><circle cx="73.33" cy="115" r="7" style="fill:#dddbd0"/><circle cx="91.83" cy="130.5" r="5.5" style="fill:#f7f4e7"/><circle cx="99.83" cy="29.5" r="2.5" style="fill:#f7f4e7;opacity:0.51"/><circle cx="113.33" cy="50" r="2" style="fill:#f7f4e7;opacity:0.51"/><circle cx="142.83" cy="78.5" r="1.5" style="fill:#f7f4e7"/><circle cx="160.83" cy="23.5" r="2.5" style="fill:#f7f4e7;opacity:0.51"/><circle cx="193.83" cy="64.5" r="2.5" style="fill:#f7f4e7;opacity:0.51"/><circle cx="169.83" cy="99.5" r="0.5" style="fill:#f7f4e7"/><circle cx="28.33" cy="59" r="1" style="fill:#f7f4e7"/><circle cx="28.33" cy="114" r="1" style="fill:#f7f4e7"/><circle cx="180.83" cy="131.5" r="1.5" style="fill:#f7f4e7"/><circle cx="241.33" cy="14" r="2" style="fill:#f7f4e7"/><circle cx="377.33" cy="131" r="1" style="fill:#f7f4e7"/><circle cx="480.33" cy="131" r="1" style="fill:#f7f4e7"/><circle cx="537.83" cy="116.5" r="1.5" style="fill:#f7f4e7"/><circle cx="537.83" cy="142.5" r="1.5" style="fill:#f7f4e7"/><circle cx="624.83" cy="68.5" r="1.5" style="fill:#f7f4e7"/><circle cx="614.83" cy="97.5" r="1.5" style="fill:#f7f4e7"/><circle cx="788.33" cy="15" r="1" style="fill:#f7f4e7"/><circle cx="408.83" cy="83.5" r="0.5" style="fill:#f7f4e7"/><ellipse cx="840.83" cy="122" rx="3.5" ry="4" style="fill:#f7f4e7"/><circle cx="945.33" cy="93" r="3" style="fill:#f7f4e7"/></g><g id="clouds-2" data-name="clouds"><path d="M238.33,79.61c43.18-6.48,69.41-9.75,70-8.23.77,2-41.68,10.63-41,12.34,1.07,2.7,107.33-15,116-16.45C480.94,51,469,50.49,592.33,28.19c34.87-6.31,63.6-11.3,63-13.71s-31.45-1-58,.68q26-26.34,21-29.48-5.66-3.54-51,22.63c-.67-8.16-11-14.26-22-13.72-10,.5-18.44,6.35-19,13.72-4.14-19.69-16.39-36.48-32-38.4-19.42-2.38-49.43,17.61-59,53.48-3.12-11.46-10.5-19.89-17-19.88-7.09,0-15.84,10-17,25.36-5.16-14.21-17.75-25-30-25.36-15.41-.51-36.17,15.19-35,39.76q-1.18-27.18-9-28.11-9.54-1.12-29,37c-8.58-17.1-14.36-18.65-17-18.51-8.83.47-13.27,21.43-15,31.54Z" style="opacity:0.8;fill:url(#linear-gradient-4)"/><path d="M659.33,110c22.83-3.25,55.7-8.36,95-16,113.21-22,223.13-54,222-59-.35-1.56-11.86-1.28-65,8q64.56-32.44,63-36-1.79-4.1-91,30-39.8-34.28-46-29-5.31,4.52,14,38c-.73-.53-15.46-10.85-31-4a30.7,30.7,0,0,0-15,15c-4.67-11.09-17.32-14.71-25-10-6,3.71-9,12.57-6,21a131.93,131.93,0,0,0-36-24c-13.5-6.07-29.56-13.28-37-7s-4.87,24.91,6,45c-4.28-9.7-15.49-13.2-23-9-6,3.33-9.13,11.24-7,19-6.2-7.23-13.87-11.07-18-9C654.49,85.43,652.56,97,659.33,110Z" style="opacity:0.76;fill:url(#linear-gradient-5)"/></g></g><g id="background"><g id="sea"><rect x="-9.67" y="377" width="1083" height="231" style="fill:url(#linear-gradient-6)"/><path d="M117.33,397l965,24,3-43Z" style="fill:url(#linear-gradient-7)"/><path d="M-15.67,449l1020,30-1020,28Z" style="opacity:0.5;fill:url(#linear-gradient-8)"/><path d="M456.33,535a938.81,938.81,0,0,0-105,6h212A939.35,939.35,0,0,0,456.33,535Z" style="fill:url(#linear-gradient-9)"/><path d="M178.33,428q-71.06,2.1-138,7l163,5q-129.06,5.42-129,8,.08,3.25,206,2c-40.89,4.7-59.12,7.95-59,10,.43,7.06,218,1.52,218-3,0-1.93-39.61-3.94-109-6l134-19C374.87,426.85,279.3,425,178.33,428Z" style="opacity:0.53;fill:url(#linear-gradient-10)"/><path d="M512.33,436c134.63-10,501.21-13.65,501-3-.18,9.33-280.91,6.44-281,16-.08,10,307.12,16.74,307,23-.14,7.71-465.83,6.85-466-2-.08-4.25,107.12-8.26,107-14-.16-7.86-200.94-8.29-201-15C479.31,438.51,506.9,436.4,512.33,436Z" style="fill:url(#linear-gradient-11)"/><path d="M-33.67,590q354.74-13.89,709-35,199.08-11.87,398-26v79l-1167,2Z" style="fill:url(#linear-gradient-12)"/><path d="M87.33,550h238a385.81,385.81,0,0,0-238,0Z" style="opacity:0.39;fill:url(#linear-gradient-13)"/><path d="M43.33,527c.12,5,452.88,1,862-8,95.6-2.11,177.33-4.25,240-6q-4-12-8-24C275.46,513.68,43.25,523.44,43.33,527Z" style="opacity:0.36;fill:url(#linear-gradient-14)"/><path d="M-10.67,399q.51-11,1-22l1076-5,39,12Z" style="fill:url(#linear-gradient-15)"/><path d="M463.33,511h109a373.25,373.25,0,0,0-109,0Z" style="opacity:0.39;fill:url(#linear-gradient-16)"/><path d="M315.33,520h115a239.54,239.54,0,0,0-115,0Z" style="opacity:0.39;fill:url(#linear-gradient-17)"/><path d="M424.33,487h110a255.08,255.08,0,0,0-110,0Z" style="opacity:0.39;fill:url(#linear-gradient-18)"/><path d="M144.33,495H291.46a316.8,316.8,0,0,0-147.13,0Z" style="opacity:0.39;fill:url(#linear-gradient-19)"/><path d="M413.33,605c156.78-9.93,274.82-21.7,356-31,37.37-4.28,108.45-12.8,205-16,63.42-2.1,115.76-1.18,151,0l-66,46Z" style="opacity:0.5;fill:url(#linear-gradient-20)"/></g><g id="mountains"><g id="mountain"><path d="M164.33,377l46-34,51-25,48,4a379.83,379.83,0,0,1,97,43q9.44,5.89,18,12Z" style="fill:url(#linear-gradient-21)"/><path d="M182.33,377l50-28,45-6,38-19a208.84,208.84,0,0,1,25,8,215.21,215.21,0,0,1,68,43Z" style="opacity:0.32;fill:url(#linear-gradient-22)"/><path d="M218.33,376l25-14c8.63-2.26,17.66-4.9,27-8,14.18-4.7,27.19-9.8,39-15h18l15-1,47,37Z" style="opacity:0.32;fill:url(#linear-gradient-23)"/><path d="M164.33,377l44-33,30,33Z" style="opacity:0.14;fill:url(#linear-gradient-24)"/><path d="M226.33,335l35-17,36,5-26,16Z" style="opacity:0.14;fill:url(#linear-gradient-25)"/></g><g id="mountain-2" data-name="mountain"><path d="M324.33,377q14.51-19,29-38l53-13,98-64,112-39c14.32,2,36.21,4.77,63,7,52.2,4.35,90.48,3.14,97,4,108.9,14.29,237.18,132,249,143Z" style="fill:url(#linear-gradient-26)"/><path d="M344.33,377h681a662.73,662.73,0,0,0-222-138l-111,9-110,33-60,17q-20.49,25-41,50l-61,4Z" style="opacity:0.45;fill:url(#linear-gradient-27)"/><path d="M415.33,377l90-26,39-42,61-21,71-18,194,15,117,84Z" style="opacity:0.45;fill:url(#linear-gradient-28)"/><path d="M353.33,339l66,5-13-18Z" style="opacity:0.14;fill:url(#linear-gradient-29)"/><path d="M502.33,263l87,9,27-49Z" style="opacity:0.14;fill:url(#linear-gradient-30)"/><path d="M431.33,328l23-20,48-22-15,25Z" style="opacity:0.14;fill:url(#linear-gradient-31)"/><path d="M322.33,377q41-10.11,82-20,12.5-3,25-6l52-3,31-35q-3.5,19-7,38l12,25Z" style="opacity:0.45;fill:url(#linear-gradient-32)"/><path d="M460.33,378l78-53,135-36,114,84Z" style="opacity:0.45;fill:url(#linear-gradient-33)"/></g><g id="mointain"><path d="M520.33,377l70-62,117-38,73-61q11-6.62,23-13a490.9,490.9,0,0,1,98-39l51,24c36.16,37.13,75,86.79,105,151,6,12.92,11.34,25.62,16,38Z" style="fill:url(#linear-gradient-34)"/><path d="M623.33,377a63.54,63.54,0,0,1,25-11c19.68-3.77,29.62,4.88,45-1,11.36-4.34,8.65-10.08,22-19,21.63-14.45,35.11-3.63,54-16,15.22-10,10.8-19.79,27-36s33.37-19.14,50-25c21.25-7.49,50-22.71,81-57,9.88,4.06,23.69,11.39,35,25,15.1,18.15,9,27.33,22,49,14.56,24.27,28.61,23.45,59,57a280.87,280.87,0,0,1,23,29Z" style="opacity:0.31;fill:url(#linear-gradient-35)"/><path d="M536.33,377l64-32,26,19,29,13Z" style="opacity:0.32;fill:url(#linear-gradient-36)"/><path d="M558.33,377l42-32c13.65,3.93,28,7.63,43,11q9.64,2.16,19,4l15-26a175.76,175.76,0,0,0,58-23l49-53,76-4q16.8-17.16,34-36,15.69-17.2,30-34l28,4a378.13,378.13,0,0,1,44,50c15.68,21.33,25.67,39.85,45,76,8.24,15.39,19.39,36.83,32,63Z" style="opacity:0.32;fill:url(#linear-gradient-37)"/><path d="M590.33,315l95,1q11-19.5,22-39Z" style="opacity:0.42;fill:url(#linear-gradient-38)"/><path d="M755.33,237l87-23,59-50a465.63,465.63,0,0,0-121,52Z" style="opacity:0.42;fill:url(#linear-gradient-39)"/></g><g id="montain"><path d="M639.33,383l53-37,62-15c5.69-7.28,13.17-16.82,22-28,17.48-22.11,19.44-24.26,23-27,12.67-9.72,22.68-9.15,48-15a370.56,370.56,0,0,0,49-15c19-48,41.5-68.38,59-78,5.33-2.93,14.35-7.15,37-19,17.52-9.16,31.72-16.89,41-22q11-18.5,22-37l58,38q1,128,2,256Z" style="fill:url(#linear-gradient-40)"/><path d="M710.33,377l405,1q-1-128-2-256c-16.06,14.05-40.65,35.54-71,62-31.45,27.42-31.6,28.07-37,32-50.06,36.44-73.53,26.81-96,56-17,22-11.93,38.35-29,46-17.77,8-27.3-7.9-52-4-25.52,4-30.58,23.38-64,43A168.07,168.07,0,0,1,710.33,377Z" style="opacity:0.45;fill:url(#linear-gradient-41)"/><path d="M775.33,377l319,1c22.87-148.89,17.21-184.13,7-187-9.86-2.77-16.41,26.83-56,53-32.32,21.37-51.88,17.46-86,44-4.81,3.75-8.92,7.32-12.49,10.7a213,213,0,0,0-19.54,21.09c-.54.66-.92,1.15-1,1.21C920.73,328.09,881.34,344.2,775.33,377Z" style="opacity:0.45;fill:url(#linear-gradient-42)"/><path d="M685.33,377a304.3,304.3,0,0,0,118-42q-10,13-20,26l26,16Z" style="opacity:0.45;fill:url(#linear-gradient-43)"/><path d="M896.33,377l30-25a219.62,219.62,0,0,0,71-61l-9,44a155.08,155.08,0,0,0,24,42Z" style="opacity:0.45;fill:url(#linear-gradient-44)"/><path d="M692.33,346l50,13,12-28Z" style="opacity:0.33;fill:url(#linear-gradient-45)"/><path d="M837.33,264l56,16q4-17,8-34-8.16,3.1-17,6A373.36,373.36,0,0,1,837.33,264Z" style="opacity:0.33;fill:url(#linear-gradient-46)"/><path d="M1055.33,93q-11,18.5-22,37l27,33Q1057.84,128,1055.33,93Z" style="opacity:0.33;fill:url(#linear-gradient-47)"/></g></g><g id="ship"><rect x="232.58" y="110.25" width="2.5" height="282.5" style="fill:#0b0e11"/><path d="M235.08,110.25a469.69,469.69,0,0,1,13.75,70c8.82,74.41-1.75,137.84-13.75,182.5,10.49,1.78,66.93,10.38,100-23.75,41.93-43.27,15.63-123.6-15-166.25C291.88,133.47,253.26,116.76,235.08,110.25Z" style="fill:#0a1733"/><path d="M211.33,409l15-18.75H358.84l13.74,20Z" style="fill:url(#linear-gradient-48)"/><path d="M91.33,390.25a92.81,92.81,0,0,0,13.75,22.5,93.86,93.86,0,0,0,32.5,25h215a63.89,63.89,0,0,0,15-8.75,65.22,65.22,0,0,0,18.75-23.75H215.07l-13.14-13.13Z" style="fill:url(#linear-gradient-49)"/><path d="M147.58,390.25l42.5,1.25,22.5,22.5,170-1.25a58.32,58.32,0,0,1-6.25,8.75,61.35,61.35,0,0,1-22.5,16.25L136.33,439Z" style="fill:url(#linear-gradient-50)"/><path d="M147.58,390.25A51.71,51.71,0,0,0,153.83,404c24.12,37.14,93.79,33.83,93.78,33.75h0c-.09,0-.11.35,0,1.25H136.33a99.67,99.67,0,0,1-45-48.75Z" style="fill:url(#linear-gradient-51)"/><circle cx="239.33" cy="398" r="5" style="fill:#03070c"/><circle cx="257.33" cy="398" r="5" style="fill:#03070c"/><circle cx="274.33" cy="398" r="5" style="fill:#03070c"/><circle cx="292.33" cy="398" r="5" style="fill:#03070c"/><circle cx="308.33" cy="398" r="5" style="fill:#03070c"/><circle cx="326.33" cy="398" r="5" style="fill:#03070c"/><circle cx="343.33" cy="398" r="5" style="fill:#03070c"/><path d="M235.33,110c1.1.61,3.12,1.77,5.59,3.32,5,3.15,24.35,15.6,42.41,40.68,8.25,11.45,38.08,54.3,30,113-7.93,57.63-46.91,90.68-56,98l-22-2c3-12,6.87-29.17,10-50,9.58-63.7,5.17-113.61,3-133A494.28,494.28,0,0,0,235.33,110Z" style="opacity:0.59;fill:url(#linear-gradient-52)"/><path d="M243.33,115a165.59,165.59,0,0,1,30,32c24,33.61,27.87,69.25,29,81a183.86,183.86,0,0,1-45,137,154.1,154.1,0,0,0,28-29,151.8,151.8,0,0,0,25-52,154.41,154.41,0,0,0,2-63,161.59,161.59,0,0,0-69-106Z" style="opacity:0.44;fill:url(#linear-gradient-53)"/><path d="M169.33,391q11.5,24,23,48h20q-11-24-22-48Z" style="opacity:0.07;fill:url(#linear-gradient-54)"/><path d="M158.33,390q9.51,24.5,19,49h5q-10-24-20-48Z" style="opacity:0.07;fill:url(#linear-gradient-55)"/><path d="M238.33,393a7.24,7.24,0,0,0-2,4,7.62,7.62,0,0,0,2,6h0a7.88,7.88,0,0,1-3-2,5,5,0,0,1-1-4A5.32,5.32,0,0,1,238.33,393Z" style="opacity:0.14;fill:url(#linear-gradient-56)"/><path d="M256.33,393a7.24,7.24,0,0,0-2,4,7.62,7.62,0,0,0,2,6h0a7.88,7.88,0,0,1-3-2,5,5,0,0,1-1-4A5.32,5.32,0,0,1,256.33,393Z" style="opacity:0.14;fill:url(#linear-gradient-57)"/><path d="M273.33,393a7.24,7.24,0,0,0-2,4,7.62,7.62,0,0,0,2,6h0a7.88,7.88,0,0,1-3-2,5,5,0,0,1-1-4A5.32,5.32,0,0,1,273.33,393Z" style="opacity:0.14;fill:url(#linear-gradient-58)"/><path d="M291.33,393a7.24,7.24,0,0,0-2,4,7.62,7.62,0,0,0,2,6h0a7.88,7.88,0,0,1-3-2,5,5,0,0,1-1-4A5.32,5.32,0,0,1,291.33,393Z" style="opacity:0.14;fill:url(#linear-gradient-59)"/><path d="M307.33,393a7.24,7.24,0,0,0-2,4,7.62,7.62,0,0,0,2,6h0a7.88,7.88,0,0,1-3-2,5,5,0,0,1-1-4A5.32,5.32,0,0,1,307.33,393Z" style="opacity:0.14;fill:url(#linear-gradient-60)"/><path d="M325.33,393a7.24,7.24,0,0,0-2,4,7.62,7.62,0,0,0,2,6h0a7.88,7.88,0,0,1-3-2,5,5,0,0,1-1-4A5.32,5.32,0,0,1,325.33,393Z" style="opacity:0.14;fill:url(#linear-gradient-61)"/><path d="M342.33,393a7.24,7.24,0,0,0-2,4,7.62,7.62,0,0,0,2,6h0a7.88,7.88,0,0,1-3-2,5,5,0,0,1-1-4A5.32,5.32,0,0,1,342.33,393Z" style="opacity:0.14;fill:url(#linear-gradient-62)"/><path d="M212.33,414l158,2a42.61,42.61,0,0,1-9,12,43.13,43.13,0,0,1-18,10h10a55.8,55.8,0,0,0,29-25Z" style="opacity:0.28;fill:url(#linear-gradient-63)"/><path d="M307.33,405c0-.25,12.5-.38,61,0q-5-7.5-10-15c.4,2.9.42,7-2,10-3.44,4.32-9.86,4.05-18,4C318.12,403.88,307.33,405.23,307.33,405Z" style="opacity:0.32;fill:url(#linear-gradient-64)"/></g></g></svg>